{"glyphs":{"0":{"ha":688,"x_min":52,"x_max":635,"o":"m 344 989 q 487 924 417 989 q 596 739 557 859 q 635 486 635 618 q 597 235 635 355 q 489 50 559 116 q 344 -17 420 -17 q 198 50 268 -17 q 91 235 129 116 q 52 486 52 355 q 91 739 52 618 q 200 924 130 859 q 344 989 270 989 m 161 467 q 202 237 170 345 q 283 71 235 128 q 370 18 327 18 q 378 19 374 18 q 465 90 426 24 q 520 270 504 156 q 530 419 530 342 q 527 505 530 461 q 485 737 517 627 q 404 903 452 847 q 317 954 359 954 q 309 954 313 954 q 224 884 263 949 q 168 705 184 819 q 157 552 157 630 q 161 467 157 510 z "},"1":{"ha":688,"x_min":148,"x_max":538,"o":"m 159 0 l 159 34 l 224 34 q 294 193 294 34 l 294 732 q 214 819 294 819 l 148 819 l 148 853 q 370 972 346 896 l 404 972 l 404 193 q 473 34 404 34 l 538 34 l 538 0 l 159 0 z "},"2":{"ha":688,"x_min":77,"x_max":635,"o":"m 490 703 q 431 869 490 803 q 305 935 373 935 q 119 846 190 935 l 104 846 l 104 879 q 182 949 130 913 q 307 986 233 986 q 515 904 431 986 q 599 703 599 822 q 174 81 599 525 l 460 81 q 602 157 548 81 l 635 157 l 565 0 l 77 0 l 78 34 q 490 703 490 492 z "},"3":{"ha":688,"x_min":56,"x_max":607,"o":"m 295 15 q 443 94 397 15 q 488 284 488 173 q 458 424 488 355 q 338 524 428 492 l 338 537 q 436 619 393 568 q 479 761 479 670 q 441 889 479 836 q 329 952 404 943 q 245 922 283 952 q 208 846 208 891 l 179 846 l 179 954 q 229 977 179 968 q 334 986 279 986 q 509 929 439 986 q 578 760 578 872 q 536 648 578 701 q 406 553 495 594 q 538 462 469 544 q 607 273 607 380 q 509 74 607 163 q 289 -15 412 -15 q 121 12 186 -15 q 56 71 56 38 l 56 139 l 90 139 q 148 49 90 83 q 295 15 206 15 z "},"4":{"ha":688,"x_min":29,"x_max":677,"o":"m 407 297 l 407 762 l 119 297 l 407 297 m 500 229 l 500 113 q 549 34 500 34 l 600 34 l 600 0 l 300 0 l 300 34 l 352 34 q 407 115 407 34 l 407 229 l 29 229 l 29 253 l 477 972 l 500 972 l 500 297 l 513 297 q 644 387 603 297 l 677 387 l 607 229 l 500 229 z "},"5":{"ha":688,"x_min":52,"x_max":631,"o":"m 155 578 l 253 972 l 522 972 q 597 1008 591 972 l 631 1008 l 589 891 l 298 891 l 227 610 q 490 525 380 610 q 600 321 600 441 q 503 74 600 163 q 283 -15 406 -15 q 115 12 180 -15 q 52 67 52 37 l 52 139 l 83 139 q 142 47 83 79 q 289 15 200 15 q 436 94 391 15 q 481 330 481 173 q 407 509 481 437 q 214 581 332 581 q 155 578 186 581 z "},"6":{"ha":688,"x_min":52,"x_max":635,"o":"m 378 7 q 489 74 447 7 q 531 242 531 141 q 463 468 531 380 q 317 557 395 557 q 206 488 255 557 q 157 318 157 419 q 222 111 157 214 q 378 7 287 7 m 543 989 l 543 957 q 322 835 423 949 q 163 518 220 722 q 344 581 229 581 q 487 543 417 581 q 596 432 557 504 q 635 282 635 361 q 597 133 635 203 q 499 22 559 62 q 385 -17 440 -17 q 136 93 220 -17 q 52 346 52 203 q 194 776 52 563 q 543 989 336 989 z "},"7":{"ha":688,"x_min":65,"x_max":623,"o":"m 500 891 l 229 891 q 99 815 139 891 l 65 815 l 135 972 l 623 972 l 622 939 q 371 121 371 351 q 416 34 371 34 l 496 34 l 496 0 l 217 0 l 217 34 l 262 34 q 311 123 311 34 q 500 891 324 323 z "},"8":{"ha":688,"x_min":52,"x_max":635,"o":"m 374 563 q 480 647 456 580 q 498 742 498 698 q 496 768 498 755 q 461 873 488 823 q 393 947 433 922 q 321 970 356 970 l 315 970 q 244 939 277 968 q 197 858 211 909 q 189 790 189 825 q 191 751 189 771 q 226 648 199 697 q 374 563 253 600 m 320 532 q 197 426 243 518 q 159 286 159 348 q 161 262 159 274 q 202 129 170 192 q 283 34 235 66 q 370 4 326 4 l 378 4 q 465 45 426 7 q 520 149 504 83 q 530 235 530 191 q 527 284 530 259 q 477 428 519 360 q 320 532 435 496 m 431 550 q 487 526 460 541 q 596 419 557 488 q 635 273 635 349 q 597 129 635 197 q 489 21 559 60 q 344 -17 420 -17 q 198 21 268 -17 q 91 129 129 60 q 52 273 52 197 q 91 419 52 349 q 200 526 130 488 q 256 550 228 541 q 223 564 239 556 q 133 648 165 594 q 101 760 101 701 q 134 873 101 819 q 224 957 166 928 q 344 986 282 986 q 463 957 405 986 q 554 873 522 928 q 587 760 587 819 q 555 648 587 701 q 465 564 523 594 q 431 550 448 555 z "},"9":{"ha":688,"x_min":52,"x_max":635,"o":"m 309 965 q 199 898 241 965 q 157 730 157 831 q 225 504 157 593 q 371 416 293 416 q 482 485 433 416 q 531 654 531 553 q 466 862 531 758 q 309 965 401 965 m 144 -17 l 144 16 q 366 137 264 24 q 524 454 467 251 q 344 391 460 391 q 201 430 271 391 q 92 540 131 469 q 52 690 52 612 q 91 840 52 769 q 188 950 129 911 q 303 989 248 989 q 552 879 468 989 q 635 627 635 769 q 494 196 635 410 q 144 -17 352 -17 z "},"\u0000":{"ha":0,"x_min":0,"x_max":0,"o":""}," ":{"ha":345,"x_min":0,"x_max":0,"o":""},"!":{"ha":456,"x_min":140,"x_max":310,"o":"m 212 222 l 179 925 q 193 972 179 956 q 235 987 208 987 q 278 972 264 987 q 292 925 292 956 l 237 222 l 212 222 m 151 113 l 207 170 q 227 180 217 180 q 248 169 235 180 l 302 111 q 310 91 310 100 q 300 70 310 81 l 246 10 q 227 -3 233 -3 q 207 6 216 -3 l 147 75 q 140 92 140 83 q 151 113 140 102 z "},"\"":{"ha":456,"x_min":68,"x_max":390,"o":"m 134 751 l 113 751 l 71 995 q 68 1017 68 1010 q 82 1056 68 1042 q 123 1069 96 1069 q 164 1056 149 1069 q 178 1018 178 1043 q 176 995 178 1013 l 134 751 m 345 751 l 325 751 l 283 995 q 280 1017 280 1010 q 294 1056 280 1042 q 334 1069 308 1069 q 375 1056 361 1069 q 390 1018 390 1043 q 387 995 390 1013 l 345 751 z "},"#":{"ha":906,"x_min":79,"x_max":827,"o":"m 404 583 l 347 386 l 511 386 l 569 583 l 404 583 m 456 972 l 519 972 l 424 649 l 588 649 l 684 972 l 747 972 l 651 649 l 827 649 l 807 583 l 631 583 l 575 387 l 764 387 l 744 320 l 554 320 l 459 0 l 397 0 l 491 320 l 328 320 l 232 0 l 170 0 l 264 320 l 79 320 l 100 387 l 283 387 l 342 583 l 142 583 l 161 649 l 361 649 l 456 972 z "},"$":{"ha":688,"x_min":77,"x_max":665,"o":"m 391 1053 l 391 983 q 487 960 437 978 q 500 956 494 956 q 528 986 517 956 l 562 986 l 631 795 l 598 795 q 484 916 557 886 q 391 943 434 937 l 391 576 q 610 452 555 513 q 665 273 665 391 q 584 70 665 140 q 391 -12 503 0 l 391 -174 l 342 -174 l 342 -13 q 161 13 214 -11 q 149 17 155 17 q 121 -14 132 17 l 87 -14 l 87 211 l 120 211 q 223 58 154 87 q 342 28 293 28 l 342 459 q 139 563 197 505 q 77 732 77 625 q 161 916 77 844 q 342 985 233 975 l 342 1053 l 391 1053 m 391 444 l 391 31 q 535 96 476 42 q 593 244 593 149 q 547 368 593 323 q 391 444 505 408 m 342 592 l 342 945 q 207 896 261 941 q 149 772 149 846 q 186 669 149 706 q 342 592 221 632 z "},"%":{"ha":1092,"x_min":42,"x_max":1050,"o":"m 304 989 q 434 956 371 989 q 532 862 496 923 q 567 732 567 800 q 533 605 567 665 q 436 510 498 544 q 304 475 373 475 q 174 510 237 475 q 77 605 111 544 q 42 732 42 665 q 77 862 42 800 q 175 956 113 923 q 304 989 238 989 m 140 723 q 177 605 149 661 q 250 521 206 550 q 327 494 288 494 q 336 494 332 494 q 414 530 378 496 q 463 623 449 564 q 472 698 472 659 q 469 742 472 720 q 431 861 461 805 q 359 945 401 917 q 281 971 319 971 l 273 971 q 197 936 232 969 q 147 844 161 903 q 137 765 137 805 q 140 723 137 744 m 201 -20 l 839 971 l 896 971 l 260 -20 l 201 -20 m 787 500 q 916 467 853 500 q 1015 372 979 433 q 1050 243 1050 311 q 1016 115 1050 176 q 919 20 981 54 q 787 -14 856 -14 q 656 20 719 -14 q 559 115 594 54 q 525 243 525 176 q 560 372 525 311 q 658 467 595 433 q 787 500 721 500 m 623 233 q 660 116 631 171 q 732 31 689 60 q 811 5 772 5 l 819 5 q 897 41 861 7 q 946 133 932 75 q 955 208 955 170 q 952 252 955 230 q 914 371 944 315 q 842 456 884 427 q 764 481 802 481 l 756 481 q 680 446 715 479 q 630 355 644 413 q 620 275 620 315 q 623 233 620 254 z "},"&":{"ha":1141,"x_min":103,"x_max":1124,"o":"m 713 133 l 337 596 q 215 538 257 596 q 174 399 174 479 q 198 276 174 338 q 267 165 222 215 q 378 79 315 109 q 510 49 441 49 q 625 72 570 49 q 713 133 680 94 m 945 0 q 851 17 907 0 q 738 106 795 34 q 619 23 692 56 q 456 -11 546 -11 q 202 91 300 -11 q 103 353 103 193 q 155 533 103 462 q 307 636 206 605 q 265 715 279 677 q 251 790 251 752 q 303 924 251 861 q 427 986 355 986 q 523 960 473 986 q 535 956 529 956 q 561 986 551 956 l 592 986 l 657 795 l 626 795 q 521 916 589 886 q 425 941 463 941 q 353 910 381 941 q 326 831 326 880 q 395 650 326 742 l 755 195 q 837 361 821 294 q 848 449 848 414 q 806 515 848 515 l 745 515 l 745 549 l 1046 549 l 1046 515 l 985 515 q 886 361 920 515 q 781 163 865 271 q 949 71 855 71 l 960 71 q 1090 157 1057 82 l 1124 157 l 1054 0 l 945 0 z "},"'":{"ha":235,"x_min":68,"x_max":178,"o":"m 134 751 l 113 751 l 71 995 q 68 1017 68 1010 q 82 1056 68 1042 q 123 1069 96 1069 q 164 1056 149 1069 q 178 1018 178 1043 q 176 995 178 1013 l 134 751 z "},"(":{"ha":514,"x_min":171,"x_max":475,"o":"m 171 408 q 238 767 172 595 q 420 1067 304 939 l 475 1067 q 319 770 358 903 q 280 415 280 639 l 280 400 q 319 46 280 176 q 475 -251 358 -87 l 420 -251 q 238 48 304 -123 q 171 408 172 220 z "},")":{"ha":514,"x_min":39,"x_max":343,"o":"m 94 -251 l 39 -251 q 195 46 156 -87 q 234 400 234 176 l 234 415 q 195 770 234 639 q 39 1067 156 903 l 94 1067 q 276 767 210 939 q 343 408 342 595 q 276 48 342 220 q 94 -251 210 -123 z "},"*":{"ha":694,"x_min":148,"x_max":546,"o":"m 338 878 q 313 966 335 926 q 288 1023 288 1010 q 303 1058 288 1044 q 346 1071 319 1071 q 388 1059 371 1071 q 404 1027 404 1046 q 380 966 404 1013 q 355 878 357 925 q 431 929 399 895 q 478 970 466 966 q 492 972 486 972 q 516 966 505 972 q 542 930 534 954 q 546 905 546 917 q 543 886 546 895 q 517 861 536 866 q 505 859 513 859 q 453 865 488 859 q 416 869 434 869 q 361 861 388 869 q 432 805 391 824 q 486 773 478 783 q 494 747 494 761 q 493 736 494 741 q 467 700 488 715 q 427 685 447 685 q 426 686 426 685 q 393 701 405 686 q 378 765 385 713 q 347 850 372 810 q 315 766 321 810 q 302 705 309 715 q 269 686 289 688 l 265 686 q 227 701 246 686 q 200 735 206 715 q 197 749 197 742 q 205 770 197 760 q 261 805 214 782 q 332 861 302 825 q 278 868 304 868 q 242 865 260 868 q 189 857 205 857 q 180 859 183 857 q 152 884 159 865 q 148 904 148 893 q 152 928 148 916 q 176 964 159 952 q 199 972 188 972 q 212 970 205 972 q 262 928 225 966 q 338 878 294 895 z "},"+":{"ha":688,"x_min":59,"x_max":629,"o":"m 296 439 l 59 439 l 59 534 l 296 534 l 296 784 l 297 785 l 391 785 l 391 534 l 628 534 l 629 533 l 629 439 l 391 439 l 391 188 l 296 188 l 296 439 z "},",":{"ha":378,"x_min":81,"x_max":252,"o":"m 161 175 q 221 131 191 175 q 252 28 252 86 q 203 -126 252 -46 q 109 -205 155 -205 l 109 -176 q 168 -47 159 -147 q 81 62 168 33 l 81 90 l 161 175 z "},"-":{"ha":454,"x_min":79,"x_max":376,"o":"m 106 277 q 79 296 79 277 l 79 353 q 106 372 79 372 l 348 372 q 376 353 376 372 l 376 296 q 349 277 376 277 l 106 277 z "},".":{"ha":378,"x_min":87,"x_max":257,"o":"m 98 113 l 154 170 q 174 180 164 180 q 195 169 182 180 l 249 111 q 257 91 257 100 q 248 70 257 81 l 193 10 q 174 -3 180 -3 q 154 6 163 -3 l 94 75 q 87 92 87 83 q 98 113 87 102 z "},"/":{"ha":386,"x_min":9,"x_max":430,"o":"m 63 -34 l 9 -34 l 376 972 l 430 972 l 63 -34 z "},":":{"ha":378,"x_min":87,"x_max":257,"o":"m 98 113 l 154 170 q 174 180 164 180 q 195 169 182 180 l 249 111 q 257 91 257 100 q 248 70 257 81 l 193 10 q 174 -3 180 -3 q 154 6 163 -3 l 94 75 q 87 92 87 83 q 98 113 87 102 m 98 583 l 154 640 q 174 650 164 650 q 195 639 182 650 l 249 581 q 257 561 257 570 q 248 540 257 551 l 193 480 q 174 467 180 467 q 154 476 163 467 l 94 545 q 87 562 87 553 q 98 583 87 572 z "},";":{"ha":378,"x_min":81,"x_max":257,"o":"m 98 583 l 154 640 q 174 649 164 649 q 195 638 182 649 l 249 580 q 257 560 257 569 q 248 539 257 550 l 193 479 q 174 466 180 466 q 154 475 163 466 l 94 544 q 87 562 87 553 q 98 583 87 572 m 161 175 q 221 131 191 175 q 252 28 252 86 q 203 -126 252 -46 q 109 -205 155 -205 l 109 -176 q 168 -47 159 -147 q 81 62 168 33 l 81 90 l 161 175 z "},"<":{"ha":688,"x_min":59,"x_max":629,"o":"m 629 728 l 205 485 l 629 244 l 629 131 l 59 457 l 59 513 l 629 842 l 629 728 z "},"=":{"ha":688,"x_min":59,"x_max":629,"o":"m 59 428 l 629 428 l 629 333 l 59 333 l 59 428 m 59 640 l 629 640 l 629 545 l 59 545 l 59 640 z "},">":{"ha":688,"x_min":59,"x_max":629,"o":"m 59 842 l 629 513 l 629 457 l 59 131 l 59 244 l 483 485 l 59 728 l 59 842 z "},"?":{"ha":507,"x_min":90,"x_max":452,"o":"m 90 902 q 254 972 176 972 q 397 926 343 972 q 452 803 452 880 q 430 708 452 756 q 345 582 408 660 q 249 455 284 505 q 214 358 214 404 q 238 230 214 315 l 206 230 q 172 373 172 323 q 251 585 172 447 q 330 794 330 722 q 298 882 330 850 q 210 913 267 913 q 90 859 153 913 l 90 902 m 151 113 l 207 170 q 227 180 217 180 q 248 169 235 180 l 302 111 q 310 91 310 100 q 300 70 310 81 l 246 10 q 227 -3 233 -3 q 207 6 216 -3 l 147 75 q 140 92 140 83 q 151 113 140 102 z "},"@":{"ha":1369,"x_min":68,"x_max":1276,"o":"m 659 422 q 557 368 603 415 q 511 233 511 320 q 554 101 511 160 q 678 42 597 42 q 764 155 744 45 l 764 478 q 659 422 727 435 m 922 20 q 854 32 880 20 q 812 68 829 43 q 757 25 793 43 q 667 6 721 6 q 493 74 569 6 q 416 233 416 142 q 452 346 417 292 q 542 424 488 399 q 660 457 597 448 q 734 486 705 468 q 764 536 764 504 q 736 621 762 583 q 648 659 709 659 q 566 619 600 659 q 532 534 532 579 l 501 534 l 501 642 q 550 669 501 656 q 671 683 600 683 q 802 639 745 682 q 859 532 859 597 l 859 133 q 923 54 859 54 q 1104 183 1048 77 q 1160 443 1160 290 q 1002 809 1146 670 q 677 937 869 937 q 411 843 538 937 q 228 602 283 750 q 182 357 182 481 q 270 11 182 145 q 477 -186 358 -124 q 693 -249 596 -249 q 1083 -108 879 -249 l 1083 -159 q 696 -283 905 -283 q 383 -200 533 -283 q 151 32 233 -117 q 68 345 68 180 q 152 660 68 509 q 386 891 236 810 q 696 972 536 972 q 1109 817 941 972 q 1276 433 1276 661 q 1157 135 1276 250 q 922 20 1038 21 z "},"A":{"ha":1489,"x_min":-2,"x_max":1303,"o":"m 984 582 q 989 567 989 575 q 981 549 989 557 q 964 542 974 542 l 338 542 q 320 549 328 542 q 313 567 313 557 q 317 581 313 575 l 629 1121 q 644 1133 634 1131 q 663 1131 654 1136 q 673 1120 670 1126 l 984 582 m 382 593 l 920 593 l 651 1058 l 382 593 m 47 13 q 32 1 42 3 q 13 3 22 -2 q 1 19 3 9 q 3 38 -2 29 l 155 300 q 180 321 158 321 l 1122 321 q 1147 300 1143 321 l 1298 38 q 1301 19 1303 29 q 1289 3 1298 9 q 1270 1 1280 -2 q 1254 13 1259 3 l 1105 271 l 197 271 l 47 13 z "},"B":{"ha":1293,"x_min":0,"x_max":1109,"o":"m 51 26 q 43 7 51 15 q 26 0 36 0 q 7 7 15 0 q 0 26 0 15 l 0 1109 q 7 1126 0 1119 q 26 1134 15 1134 q 43 1126 36 1134 q 51 1109 51 1119 l 51 26 m 690 839 q 775 873 739 839 l 777 875 q 812 961 812 911 q 777 1046 812 1010 l 777 1047 q 690 1083 741 1083 l 321 1083 l 321 839 l 690 839 m 271 1109 q 278 1126 271 1119 q 296 1134 286 1134 l 690 1134 q 812 1084 762 1134 l 814 1082 q 863 961 863 1031 q 812 839 863 889 l 810 838 q 796 825 804 831 q 986 715 906 796 q 1109 419 1109 593 q 986 123 1109 245 q 690 0 863 0 l 296 0 q 278 7 286 0 q 271 26 271 15 l 271 1109 m 690 51 q 950 159 842 51 q 1058 419 1058 267 q 950 680 1058 572 q 690 787 842 787 l 321 787 l 321 51 l 690 51 z "},"C":{"ha":1290,"x_min":0,"x_max":1063,"o":"m 743 454 q 759 466 749 463 q 778 463 769 469 q 790 448 787 458 q 787 429 793 437 q 686 327 750 364 q 548 290 622 290 q 352 371 433 290 q 271 567 271 452 q 352 763 271 682 q 548 844 433 844 q 686 807 622 844 q 787 705 750 770 q 790 686 793 696 q 778 671 787 676 q 759 668 769 665 q 743 680 749 671 q 661 763 713 732 q 548 793 608 793 q 388 727 454 793 q 321 567 321 661 q 388 408 321 473 q 548 341 454 341 q 661 371 608 341 q 743 454 713 401 m 1014 309 q 1029 321 1019 318 q 1049 318 1040 323 q 1061 302 1058 313 q 1058 283 1063 292 q 850 76 982 152 q 567 0 719 0 q 166 166 332 0 q 45 347 87 245 q 0 567 0 452 q 166 968 0 802 q 347 1090 245 1046 q 567 1134 452 1134 q 850 1059 719 1134 l 852 1057 q 1058 850 983 981 q 1061 831 1063 842 q 1049 816 1058 821 q 1029 813 1040 810 q 1014 825 1019 816 q 826 1014 945 945 l 825 1015 q 567 1083 705 1083 q 202 932 353 1083 q 51 567 51 781 q 202 202 51 353 q 567 51 353 51 q 825 119 706 51 q 1014 309 945 189 z "},"D":{"ha":1286,"x_min":0,"x_max":1109,"o":"m 542 1134 q 943 968 777 1134 q 1065 788 1021 890 q 1109 567 1109 682 q 943 166 1109 332 q 763 45 865 87 q 542 0 657 0 l 296 0 q 278 7 286 0 q 271 26 271 15 l 271 1109 q 278 1126 271 1119 q 296 1134 286 1134 l 542 1134 m 321 1083 l 321 51 l 542 51 q 907 202 755 51 q 1058 567 1058 353 q 907 932 1058 781 q 543 1083 756 1083 l 321 1083 m 51 26 q 43 7 51 15 q 26 0 36 0 q 7 7 15 0 q 0 26 0 15 l 0 1109 q 7 1126 0 1119 q 26 1134 15 1134 q 43 1126 36 1134 q 51 1109 51 1119 l 51 26 z "},"E":{"ha":1358,"x_min":0,"x_max":1134,"o":"m 1109 1134 q 1126 1126 1119 1134 q 1134 1109 1134 1119 q 1126 1090 1134 1098 q 1109 1083 1119 1083 l 321 1083 l 321 593 l 1093 593 q 1111 585 1103 593 q 1118 567 1118 578 q 1111 549 1118 557 q 1093 542 1103 542 l 321 542 l 321 51 l 1109 51 q 1126 43 1119 51 q 1134 26 1134 36 q 1126 7 1134 15 q 1109 0 1119 0 l 296 0 q 278 7 286 0 q 271 26 271 15 l 271 1109 q 278 1126 271 1119 q 296 1134 286 1134 l 1109 1134 m 0 1109 q 7 1126 0 1119 q 26 1134 15 1134 q 43 1126 36 1134 q 51 1109 51 1119 l 51 26 q 43 7 51 15 q 26 0 36 0 q 7 7 15 0 q 0 26 0 15 l 0 1109 z "},"F":{"ha":1358,"x_min":0,"x_max":1134,"o":"m 0 1109 q 7 1126 0 1119 q 26 1134 15 1134 q 43 1126 36 1134 q 51 1109 51 1119 l 51 26 q 43 7 51 15 q 26 0 36 0 q 7 7 15 0 q 0 26 0 15 l 0 1109 m 321 542 l 321 26 q 314 7 321 15 q 296 0 307 0 q 278 7 286 0 q 271 26 271 15 l 271 1109 q 278 1126 271 1119 q 296 1134 286 1134 l 1109 1134 q 1126 1126 1119 1134 q 1134 1109 1134 1119 q 1126 1090 1134 1098 q 1109 1083 1119 1083 l 321 1083 l 321 593 l 1093 593 q 1111 585 1103 593 q 1118 567 1118 578 q 1111 549 1118 557 q 1093 542 1103 542 l 321 542 z "},"G":{"ha":1274,"x_min":0,"x_max":1065,"o":"m 1015 218 q 850 76 946 131 q 567 0 719 0 q 166 166 332 0 q 45 347 87 245 q 0 567 0 452 q 166 968 0 802 q 347 1090 245 1046 q 567 1134 452 1134 q 850 1059 719 1134 l 852 1057 q 1058 850 983 981 q 1061 831 1063 842 q 1049 816 1058 821 q 1029 813 1040 810 q 1014 825 1019 816 q 826 1014 945 945 l 825 1015 q 567 1083 705 1083 q 202 932 353 1083 q 51 567 51 781 q 202 202 51 353 q 567 51 353 51 q 825 119 706 51 q 985 264 920 174 l 502 264 q 484 271 491 264 q 476 289 476 279 q 484 307 476 300 q 502 315 491 315 l 1015 315 l 1015 534 l 502 534 q 484 542 491 534 q 476 560 476 549 q 484 578 476 570 q 502 585 491 585 q 635 585 555 585 l 771 583 q 1040 585 935 582 q 1058 578 1050 585 q 1065 560 1065 570 l 1065 26 q 1058 7 1065 15 q 1040 0 1050 0 q 1022 7 1029 0 q 1015 26 1015 15 l 1015 218 z "},"H":{"ha":1358,"x_min":0,"x_max":1134,"o":"m 0 431 q 7 450 0 442 q 26 457 15 457 l 1109 457 q 1126 450 1119 457 q 1134 431 1134 442 l 1134 26 q 1126 7 1134 15 q 1109 0 1119 0 q 1090 7 1098 0 q 1083 26 1083 15 l 1083 406 l 51 406 l 51 26 q 43 7 51 15 q 26 0 36 0 q 7 7 15 0 q 0 26 0 15 l 0 431 m 1083 1109 q 1090 1126 1083 1119 q 1109 1134 1098 1134 q 1126 1126 1119 1134 q 1134 1109 1134 1119 l 1134 703 q 1126 684 1134 692 q 1109 677 1119 677 l 26 677 q 7 684 15 677 q 0 703 0 692 l 0 1109 q 7 1126 0 1119 q 26 1134 15 1134 q 43 1126 36 1134 q 51 1109 51 1119 l 51 728 l 1083 728 l 1083 1109 z "},"I":{"ha":541,"x_min":0,"x_max":321,"o":"m 0 1109 q 7 1126 0 1119 q 26 1134 15 1134 q 43 1126 36 1134 q 51 1109 51 1119 l 51 26 q 43 7 51 15 q 26 0 36 0 q 7 7 15 0 q 0 26 0 15 l 0 1109 m 271 1109 q 278 1126 271 1119 q 296 1134 286 1134 q 314 1126 307 1134 q 321 1109 321 1119 l 321 26 q 314 7 321 15 q 296 0 307 0 q 278 7 286 0 q 271 26 271 15 l 271 1109 z "},"J":{"ha":910,"x_min":0,"x_max":715,"o":"m 665 1109 q 672 1126 665 1119 q 690 1134 680 1134 q 708 1126 701 1134 q 715 1109 715 1119 l 715 419 q 593 123 715 245 q 296 0 470 0 l 26 0 q 7 7 15 0 q 0 26 0 15 q 7 43 0 36 q 26 51 15 51 l 296 51 q 557 159 449 51 q 665 418 664 267 l 665 1109 m 445 419 q 402 307 445 353 q 296 258 358 258 l 26 258 q 7 266 15 258 q 0 283 0 273 q 7 302 0 294 q 26 309 15 309 l 296 309 q 364 340 336 309 q 393 419 393 373 l 393 1083 l 26 1083 q 7 1090 15 1083 q 0 1109 0 1098 q 7 1126 0 1119 q 26 1134 15 1134 l 419 1134 q 437 1126 430 1134 q 445 1109 445 1119 l 445 419 z "},"K":{"ha":1493,"x_min":0,"x_max":1261,"o":"m 1247 47 q 1259 32 1256 42 q 1256 13 1261 22 q 1241 1 1251 4 q 1221 3 1231 -2 l 321 523 l 321 26 q 314 7 321 15 q 296 0 307 0 q 278 7 286 0 q 271 26 271 15 l 271 1109 q 278 1126 271 1119 q 296 1134 286 1134 q 314 1126 307 1134 q 321 1109 321 1119 l 321 611 l 1221 1131 q 1241 1133 1231 1136 q 1256 1121 1251 1131 q 1259 1102 1261 1112 q 1247 1086 1256 1092 l 347 567 l 1247 47 m 0 1109 q 7 1126 0 1119 q 26 1134 15 1134 q 43 1126 36 1134 q 51 1109 51 1119 l 51 26 q 43 7 51 15 q 26 0 36 0 q 7 7 15 0 q 0 26 0 15 l 0 1109 z "},"L":{"ha":920,"x_min":0,"x_max":715,"o":"m 690 0 q 708 7 701 0 q 715 26 715 15 q 708 43 715 36 q 690 51 701 51 l 321 51 l 321 1109 q 314 1126 321 1119 q 296 1134 307 1134 q 278 1126 286 1134 q 271 1109 271 1119 l 271 26 q 278 7 271 15 q 296 0 286 0 l 690 0 m 0 26 q 7 7 0 15 q 26 0 15 0 q 43 7 36 0 q 51 26 51 15 l 51 1109 q 43 1126 51 1119 q 26 1134 36 1134 q 7 1126 15 1134 q 0 1109 0 1119 l 0 26 z "},"M":{"ha":1219,"x_min":0,"x_max":1029,"o":"m 0 26 q 7 7 0 15 q 26 0 15 0 q 43 7 36 0 q 51 26 51 15 l 51 1014 l 357 484 q 366 475 360 478 q 378 471 372 471 l 379 471 q 391 475 386 471 q 401 484 398 478 l 707 1014 l 707 26 q 714 7 707 15 q 732 0 722 0 q 750 7 743 0 q 758 26 758 15 l 758 1109 q 750 1126 758 1119 q 732 1134 743 1134 q 709 1120 716 1134 l 379 547 l 48 1120 q 26 1134 41 1134 q 7 1126 15 1134 q 0 1109 0 1119 l 0 26 m 1029 1109 q 1021 1126 1029 1119 q 1003 1134 1014 1134 q 985 1126 993 1134 q 978 1109 978 1119 l 978 26 q 985 7 978 15 q 1003 0 993 0 q 1021 7 1014 0 q 1029 26 1029 15 l 1029 1109 z "},"N":{"ha":1152,"x_min":0,"x_max":947,"o":"m 947 26 q 940 7 947 15 q 922 0 932 0 q 903 7 911 0 q 896 26 896 15 l 896 1109 q 903 1126 896 1119 q 922 1134 911 1134 q 940 1126 932 1134 q 947 1109 947 1119 l 947 26 m 625 120 l 49 1119 q 26 1134 42 1134 q 7 1126 15 1134 q 0 1109 0 1119 l 0 26 q 7 7 0 15 q 26 0 15 0 q 43 7 36 0 q 51 26 51 15 l 51 1014 l 628 14 q 651 0 635 0 q 669 7 661 0 q 676 26 676 15 l 676 1109 q 669 1126 676 1119 q 651 1134 661 1134 q 633 1126 640 1134 q 625 1109 625 1119 l 625 120 z "},"O":{"ha":1338,"x_min":0,"x_max":1134,"o":"m 567 863 q 777 777 690 863 q 863 567 863 690 q 777 357 863 444 q 567 271 690 271 q 357 357 444 271 q 271 567 271 444 q 357 777 271 690 q 567 863 444 863 m 741 741 q 567 812 669 812 q 393 741 465 812 q 321 567 321 669 q 393 393 321 465 q 567 321 465 321 q 741 393 669 321 q 812 567 812 465 q 741 741 812 669 m 567 1134 q 968 968 802 1134 q 1090 788 1046 890 q 1134 567 1134 682 q 968 166 1134 332 q 788 45 890 87 q 567 0 682 0 q 166 166 332 0 q 45 347 87 245 q 0 567 0 452 q 166 968 0 802 q 347 1090 245 1046 q 567 1134 452 1134 m 932 932 q 567 1083 781 1083 q 202 932 353 1083 q 51 567 51 781 q 202 202 51 353 q 567 51 353 51 q 932 202 781 51 q 1083 567 1083 353 q 932 932 1083 781 z "},"P":{"ha":1319,"x_min":0,"x_max":1109,"o":"m 321 26 q 314 7 321 15 q 296 0 307 0 q 278 7 286 0 q 271 26 271 15 l 271 1109 q 278 1126 271 1119 q 296 1134 286 1134 l 690 1134 q 986 1011 863 1134 q 1109 715 1109 888 q 986 418 1109 541 q 690 296 863 296 l 321 296 l 321 26 m 0 1109 q 7 1126 0 1119 q 26 1134 15 1134 q 43 1126 36 1134 q 51 1109 51 1119 l 51 26 q 43 7 51 15 q 26 0 36 0 q 7 7 15 0 q 0 26 0 15 l 0 1109 m 321 1083 l 321 347 l 690 347 q 950 454 842 347 q 1058 715 1058 562 q 950 975 1058 867 q 690 1083 842 1083 l 321 1083 z "},"Q":{"ha":1541,"x_min":0,"x_max":1310,"o":"m 941 188 l 944 186 l 1160 61 q 1173 45 1170 56 q 1170 26 1175 35 q 1154 15 1164 18 q 1135 17 1144 12 l 933 134 q 770 38 859 72 q 567 0 672 0 q 166 166 332 0 q 45 347 87 245 q 0 567 0 452 q 166 968 0 802 q 347 1090 245 1046 q 567 1134 452 1134 q 968 968 802 1134 q 1090 788 1046 890 q 1134 567 1134 682 q 1126 475 1134 521 q 1110 403 1120 439 l 1296 296 q 1308 280 1305 290 q 1305 261 1310 270 q 1290 249 1300 252 q 1270 252 1280 246 l 690 587 q 678 602 681 592 q 680 622 675 612 q 696 633 686 631 q 715 631 706 636 l 812 575 q 741 741 809 672 q 567 812 669 812 q 393 741 465 812 q 321 567 321 669 q 393 393 321 465 q 567 321 465 321 q 603 324 585 321 l 554 353 q 543 368 545 357 q 545 387 540 378 q 560 399 550 396 q 580 396 570 401 l 941 188 m 1065 429 q 1076 484 1072 456 q 1083 567 1083 524 q 932 932 1083 781 q 567 1083 781 1083 q 202 932 353 1083 q 51 567 51 781 q 202 202 51 353 q 567 51 353 51 q 752 85 664 51 q 886 161 825 113 l 666 288 q 623 276 645 280 l 622 276 q 567 271 595 271 q 357 357 444 271 q 271 567 271 444 q 357 777 271 690 q 567 863 444 863 q 777 777 690 863 q 863 567 863 690 q 863 549 863 559 l 863 549 l 863 546 l 1065 429 z "},"R":{"ha":1322,"x_min":0,"x_max":1109,"o":"m 674 296 l 838 13 q 852 1 842 4 q 872 3 863 -2 q 884 19 881 9 q 881 38 886 29 l 731 298 q 986 418 880 313 q 1109 715 1109 541 q 986 1011 1109 888 q 690 1134 863 1134 l 296 1134 q 278 1126 286 1134 q 271 1109 271 1119 l 271 26 q 278 7 271 15 q 296 0 286 0 q 314 7 307 0 q 321 26 321 15 l 321 296 l 674 296 m 51 1109 q 43 1126 51 1119 q 26 1134 36 1134 q 7 1126 15 1134 q 0 1109 0 1119 l 0 26 q 7 7 0 15 q 26 0 15 0 q 43 7 36 0 q 51 26 51 15 l 51 1109 m 690 1083 q 950 975 842 1083 q 1058 715 1058 867 q 950 454 1058 562 q 690 347 842 347 l 321 347 l 321 1083 l 690 1083 z "},"S":{"ha":1036,"x_min":0,"x_max":838,"o":"m 413 788 l 173 788 q 52 838 102 788 l 51 839 q 0 961 0 889 q 50 1082 0 1031 l 51 1084 q 173 1134 101 1134 l 567 1134 q 585 1126 577 1134 q 592 1109 592 1119 q 585 1090 592 1098 q 567 1083 577 1083 l 173 1083 q 87 1047 123 1083 l 85 1046 q 51 961 51 1010 q 87 875 51 911 l 88 873 q 173 839 123 839 l 419 839 l 425 838 q 715 715 595 836 q 838 419 838 593 q 715 123 838 245 q 419 0 593 0 l 26 0 q 7 7 15 0 q 0 26 0 15 q 7 43 0 36 q 26 51 15 51 l 419 51 q 680 159 572 51 q 787 419 787 267 q 680 680 787 572 q 419 787 572 787 l 413 788 m 419 517 q 401 524 408 517 q 393 542 393 532 q 401 560 393 553 q 419 568 408 568 q 524 524 481 568 l 526 522 q 568 419 568 479 q 524 314 568 357 q 419 271 481 271 q 401 278 408 271 q 393 296 393 286 q 401 314 393 307 q 419 321 408 321 q 488 350 459 321 q 517 419 517 378 q 489 487 517 458 l 488 488 q 419 517 460 517 z "},"T":{"ha":1306,"x_min":0,"x_max":1109,"o":"m 419 1134 q 437 1126 430 1134 q 445 1109 445 1119 l 444 26 q 437 7 444 15 q 419 0 429 0 q 401 7 408 0 q 393 26 393 15 l 393 1083 l 26 1083 q 7 1090 15 1083 q 0 1109 0 1098 q 7 1126 0 1119 q 26 1134 15 1134 l 419 1134 m 715 26 q 708 7 715 15 q 690 0 701 0 q 672 7 680 0 q 665 26 665 15 l 665 1109 q 672 1126 665 1119 q 690 1134 680 1134 l 1083 1134 q 1101 1126 1094 1134 q 1109 1109 1109 1119 q 1101 1090 1109 1098 q 1084 1083 1094 1083 l 715 1083 l 715 26 z "},"U":{"ha":1348,"x_min":0,"x_max":1134,"o":"m 1134 567 q 968 166 1134 332 q 788 45 890 87 q 567 0 682 0 q 166 166 332 0 q 45 347 87 245 q 0 567 0 452 l 0 1109 q 7 1126 0 1119 q 26 1134 15 1134 q 43 1126 36 1134 q 51 1109 51 1119 l 51 567 q 202 202 51 353 q 567 51 353 51 q 932 202 781 51 q 1083 567 1083 353 l 1083 1109 q 1090 1126 1083 1119 q 1109 1134 1098 1134 q 1126 1126 1119 1134 q 1134 1109 1134 1119 l 1134 567 m 812 1109 q 820 1126 812 1119 q 838 1134 827 1134 q 856 1126 848 1134 q 863 1109 863 1119 l 863 566 q 777 357 863 444 q 567 271 690 271 q 549 278 557 271 q 542 296 542 286 q 549 314 542 307 q 567 321 557 321 q 741 393 669 321 q 812 567 812 465 l 812 1109 z "},"V":{"ha":1615,"x_min":-2,"x_max":1403,"o":"m 47 1121 q 32 1133 42 1131 q 13 1131 22 1136 q 1 1115 3 1125 q 3 1096 -2 1105 l 523 196 q 538 184 528 187 q 557 186 549 182 q 568 197 564 191 l 1086 1096 q 1089 1115 1092 1105 q 1077 1131 1086 1125 q 1058 1133 1068 1136 q 1042 1121 1048 1131 l 545 260 l 47 1121 m 1398 1096 q 1400 1115 1403 1105 q 1389 1131 1398 1125 q 1369 1133 1379 1136 q 1354 1121 1359 1131 l 728 38 q 726 19 724 29 q 738 3 729 9 q 758 1 747 -2 q 772 13 768 3 l 1398 1096 z "},"W":{"ha":2233,"x_min":-2,"x_max":2026,"o":"m 989 490 l 1172 806 l 1354 1121 q 1369 1133 1359 1131 q 1389 1131 1379 1136 q 1400 1115 1398 1125 q 1398 1096 1403 1105 l 1042 479 l 1168 260 l 1666 1121 q 1681 1133 1671 1131 q 1700 1131 1691 1136 q 1712 1115 1710 1125 q 1710 1096 1715 1105 l 1191 197 q 1181 186 1187 191 q 1162 184 1172 182 q 1146 196 1152 187 l 1013 428 l 772 13 q 758 1 768 3 q 738 3 747 -2 q 726 19 729 9 q 728 38 724 29 l 989 490 m 1042 1121 q 1058 1133 1048 1131 q 1077 1131 1068 1136 q 1089 1115 1086 1125 q 1086 1096 1092 1105 l 568 197 q 557 186 564 191 q 538 184 549 182 q 523 196 528 187 l 3 1096 q 1 1115 -2 1105 q 13 1131 3 1125 q 32 1133 22 1136 q 47 1121 42 1131 l 545 260 l 1042 1121 m 1978 1121 q 1992 1133 1982 1131 q 2012 1131 2003 1136 q 2024 1115 2021 1125 q 2021 1096 2026 1105 l 1396 13 q 1381 1 1390 3 q 1361 3 1371 -2 q 1350 19 1352 9 q 1352 38 1347 29 l 1978 1121 z "},"X":{"ha":1203,"x_min":-2,"x_max":988,"o":"m 548 445 q 743 783 626 581 l 841 952 l 939 1121 q 954 1133 944 1131 q 973 1131 964 1136 q 985 1115 983 1125 q 983 1096 988 1105 l 600 433 l 827 38 q 830 19 833 29 q 819 3 827 9 q 799 1 809 -2 q 784 13 789 3 l 570 382 l 357 13 q 342 1 352 3 q 323 3 332 -2 q 311 19 313 9 q 313 38 308 29 l 548 445 m 629 1121 q 644 1133 634 1131 q 663 1131 654 1136 q 675 1115 673 1125 q 673 1096 678 1105 l 47 13 q 32 1 42 3 q 13 3 22 -2 q 1 19 3 9 q 3 38 -2 29 l 386 701 l 158 1096 q 156 1115 153 1105 q 168 1131 159 1125 q 186 1133 176 1136 q 202 1121 197 1131 l 416 752 l 629 1121 z "},"Y":{"ha":1402,"x_min":-2,"x_max":1185,"o":"m 435 449 l 824 1121 q 840 1133 829 1131 q 859 1131 849 1136 q 870 1115 867 1125 q 868 1096 873 1105 l 461 391 l 461 26 q 454 7 461 15 q 435 0 446 0 q 418 7 425 0 q 410 26 410 15 l 410 391 l 3 1096 q 1 1115 -2 1105 q 13 1131 3 1125 q 32 1133 22 1136 q 47 1121 42 1131 l 435 449 m 769 385 q 753 374 764 376 q 734 376 744 371 q 723 391 726 381 q 725 411 720 401 l 1135 1121 q 1151 1133 1141 1131 q 1170 1131 1161 1136 q 1182 1115 1179 1125 q 1179 1096 1185 1105 l 769 385 z "},"Z":{"ha":1341,"x_min":0,"x_max":1134,"o":"m 106 1083 l 1121 375 q 1134 353 1134 368 q 1126 335 1134 342 q 1109 328 1119 328 l 26 328 q 7 335 15 328 q 0 353 0 342 q 7 371 0 363 q 26 378 15 378 l 1028 378 l 13 1086 q 0 1109 0 1094 q 7 1126 0 1119 q 26 1134 15 1134 l 1109 1134 q 1126 1126 1119 1134 q 1134 1109 1134 1119 q 1126 1090 1134 1098 q 1109 1083 1119 1083 l 106 1083 m 26 0 q 7 7 15 0 q 0 26 0 15 q 7 43 0 36 q 26 51 15 51 l 1109 51 q 1126 43 1119 51 q 1134 26 1134 36 q 1126 7 1134 15 q 1109 0 1119 0 l 26 0 z "},"[":{"ha":514,"x_min":0,"x_max":0,"o":""},"\\":{"ha":386,"x_min":0,"x_max":0,"o":""},"]":{"ha":514,"x_min":0,"x_max":0,"o":""},"^":{"ha":688,"x_min":0,"x_max":0,"o":""},"_":{"ha":694,"x_min":0,"x_max":694,"o":"m 0 -68 l 694 -68 l 694 -109 l 0 -109 l 0 -68 z "},"`":{"ha":694,"x_min":144,"x_max":456,"o":"m 456 732 l 410 732 l 186 869 q 154 896 165 882 q 144 924 144 909 q 158 959 144 945 q 194 972 172 972 q 221 964 208 972 q 259 932 235 956 l 456 732 z "},"a":{"ha":625,"x_min":0,"x_max":0,"o":""},"b":{"ha":675,"x_min":0,"x_max":0,"o":""},"c":{"ha":614,"x_min":0,"x_max":0,"o":""},"d":{"ha":705,"x_min":0,"x_max":0,"o":""},"e":{"ha":616,"x_min":0,"x_max":0,"o":""},"f":{"ha":379,"x_min":0,"x_max":0,"o":""},"g":{"ha":610,"x_min":0,"x_max":0,"o":""},"h":{"ha":749,"x_min":0,"x_max":0,"o":""},"i":{"ha":349,"x_min":0,"x_max":0,"o":""},"j":{"ha":346,"x_min":0,"x_max":0,"o":""},"k":{"ha":696,"x_min":0,"x_max":0,"o":""},"l":{"ha":354,"x_min":0,"x_max":0,"o":""},"m":{"ha":1064,"x_min":0,"x_max":0,"o":""},"n":{"ha":751,"x_min":0,"x_max":0,"o":""},"o":{"ha":685,"x_min":0,"x_max":0,"o":""},"p":{"ha":685,"x_min":0,"x_max":0,"o":""},"q":{"ha":694,"x_min":0,"x_max":0,"o":""},"r":{"ha":469,"x_min":0,"x_max":0,"o":""},"s":{"ha":476,"x_min":0,"x_max":0,"o":""},"t":{"ha":457,"x_min":0,"x_max":0,"o":""},"u":{"ha":718,"x_min":0,"x_max":0,"o":""},"v":{"ha":673,"x_min":0,"x_max":0,"o":""},"w":{"ha":960,"x_min":0,"x_max":0,"o":""},"x":{"ha":685,"x_min":0,"x_max":0,"o":""},"y":{"ha":589,"x_min":0,"x_max":0,"o":""},"z":{"ha":493,"x_min":0,"x_max":0,"o":""},"{":{"ha":688,"x_min":163,"x_max":600,"o":"m 163 473 q 314 522 279 477 q 349 612 349 566 l 349 929 q 401 1025 349 979 q 526 1071 453 1071 l 600 1071 l 600 1037 l 538 1037 q 466 1014 497 1037 q 434 952 435 991 l 434 613 q 393 506 434 557 q 296 454 352 454 l 296 452 q 393 401 352 452 q 435 294 435 350 l 434 -45 q 466 -107 435 -85 q 538 -130 497 -130 l 600 -130 l 600 -164 l 526 -164 q 401 -118 453 -164 q 349 -22 349 -73 l 349 295 q 314 385 349 340 q 163 433 279 429 l 163 473 z "},"|":{"ha":688,"x_min":290,"x_max":398,"o":"m 290 1069 l 398 1069 l 398 -283 l 290 -283 l 290 1069 z "},"}":{"ha":688,"x_min":88,"x_max":525,"o":"m 525 433 q 374 385 408 429 q 339 295 339 340 l 339 -22 q 287 -118 338 -73 q 161 -164 235 -164 l 88 -164 l 88 -130 l 149 -130 q 222 -107 191 -130 q 254 -45 253 -85 l 253 294 q 294 401 253 350 q 392 452 336 452 l 392 454 q 295 506 336 454 q 254 613 254 557 l 254 952 q 222 1014 253 991 q 149 1037 191 1037 l 88 1037 l 88 1071 l 161 1071 q 287 1025 235 1071 q 339 929 339 979 l 339 612 q 374 522 339 566 q 525 473 408 477 l 525 433 z "},"~":{"ha":688,"x_min":64,"x_max":626,"o":"m 626 595 l 626 490 q 543 424 583 441 q 465 406 503 406 q 344 439 424 406 q 224 472 264 472 q 152 453 190 472 q 64 377 113 434 l 64 483 q 147 550 107 532 q 224 568 187 568 q 348 534 268 568 q 465 500 427 500 q 538 519 500 500 q 626 595 576 538 z "},"¡":{"ha":456,"x_min":0,"x_max":0,"o":""},"¢":{"ha":772,"x_min":0,"x_max":0,"o":""},"£":{"ha":688,"x_min":52,"x_max":635,"o":"m 507 913 q 399 935 458 935 l 397 935 q 269 866 330 935 q 212 703 212 803 q 212 682 212 692 q 248 497 212 591 l 492 497 l 492 456 l 266 456 q 287 416 275 436 q 311 322 311 373 q 201 68 311 213 l 473 68 q 602 157 562 68 l 635 157 l 565 0 l 77 0 l 78 34 q 205 317 205 195 q 182 414 205 370 q 161 456 170 436 l 52 456 l 52 497 l 143 497 q 104 669 104 594 q 188 904 104 822 q 395 986 271 986 l 398 986 q 524 977 449 986 q 599 954 599 967 l 599 844 l 559 844 q 507 913 556 886 z "},"¤":{"ha":688,"x_min":83,"x_max":604,"o":"m 237 380 q 304 341 265 353 q 344 336 324 336 q 383 341 363 336 q 450 380 422 353 q 489 447 477 408 q 495 486 495 467 q 489 526 495 506 q 450 593 477 565 q 382 631 422 620 q 343 637 363 637 q 304 631 323 637 q 237 593 264 619 q 199 526 211 566 q 193 486 193 506 q 199 448 193 467 q 237 380 210 408 m 163 612 l 83 692 l 137 747 l 217 667 q 284 699 247 688 q 345 708 314 708 q 401 700 372 708 q 470 667 439 688 l 550 747 l 604 692 l 525 613 q 557 544 546 582 q 566 486 566 515 q 557 429 566 458 q 525 359 546 391 l 604 280 l 550 225 l 470 305 q 401 273 439 283 q 344 264 373 264 q 286 273 315 264 q 217 305 248 283 l 137 225 l 83 280 l 163 359 q 130 429 141 391 q 122 486 122 458 q 131 545 122 516 q 163 612 142 583 z "},"¥":{"ha":856,"x_min":5,"x_max":864,"o":"m 371 153 l 370 317 q 369 340 370 330 q 366 362 368 351 l 37 363 q 23 367 28 363 q 18 380 18 372 q 23 393 18 389 q 37 397 27 397 l 354 397 l 272 514 l 39 514 q 23 518 27 514 q 18 530 18 522 q 22 544 18 540 q 37 547 26 547 l 245 547 q 172 652 216 586 q 18 786 83 786 q 9 790 14 786 q 5 798 5 793 q 13 816 5 810 q 35 822 20 822 q 118 817 53 822 q 229 811 183 811 l 289 811 q 317 807 311 811 q 322 789 322 802 q 312 779 322 783 q 286 775 302 775 q 274 777 282 775 q 261 778 265 778 q 236 771 245 778 q 227 754 227 765 q 238 719 227 742 q 269 667 249 696 l 376 517 q 399 481 385 504 q 447 433 427 433 q 458 437 453 433 q 468 447 463 440 l 656 715 q 665 733 661 724 q 668 750 668 743 q 661 768 668 762 q 636 778 654 774 q 608 781 626 779 q 576 798 576 783 q 582 813 576 808 q 599 818 587 818 q 609 817 601 818 q 682 812 647 812 l 777 812 q 821 813 797 812 q 846 814 844 814 q 858 811 853 814 q 864 803 863 808 q 838 780 864 784 q 820 777 826 778 q 720 697 777 766 q 712 687 715 691 l 597 547 l 817 547 q 833 543 827 547 q 839 532 839 539 q 835 518 839 522 q 819 514 831 514 l 571 514 q 506 438 540 475 q 470 397 471 400 l 817 397 q 834 394 829 397 q 839 382 839 390 q 834 368 839 372 q 819 363 829 363 l 460 363 q 459 342 460 355 q 458 322 458 329 l 460 176 q 464 75 460 99 q 477 45 467 50 q 550 32 498 33 q 603 11 603 31 q 596 -3 603 3 q 579 -8 589 -8 q 555 -5 578 -8 q 511 -3 532 -3 q 370 -5 450 -3 q 273 -8 290 -8 q 246 -5 252 -8 q 240 5 240 -3 q 245 18 240 14 q 271 26 251 22 q 288 30 277 28 q 350 52 338 41 q 366 83 361 60 q 371 153 371 106 z "},"¦":{"ha":688,"x_min":290,"x_max":398,"o":"m 290 252 l 398 252 l 398 -283 l 290 -283 l 290 252 m 290 1070 l 398 1070 l 398 535 l 290 535 l 290 1070 z "},"§":{"ha":688,"x_min":115,"x_max":572,"o":"m 370 218 q 435 254 408 229 q 485 366 485 298 q 484 373 485 370 l 483 373 q 480 391 482 382 q 404 477 465 433 q 318 497 363 497 q 233 467 265 497 q 201 387 201 437 q 370 218 201 304 m 316 -235 q 441 -188 393 -231 q 490 -76 490 -144 q 276 111 490 9 q 157 204 193 155 q 121 324 121 254 q 182 485 121 425 q 297 541 227 529 l 270 553 q 151 646 186 597 q 115 766 115 696 q 176 927 115 867 q 322 985 231 981 q 334 986 328 986 l 336 986 q 446 975 380 986 q 512 947 512 964 l 512 815 l 477 815 q 423 905 474 870 q 322 939 376 937 l 312 939 q 227 909 259 939 q 195 829 195 879 q 390 647 195 740 q 529 550 491 602 q 566 422 566 498 q 498 231 566 307 q 431 188 466 205 q 535 108 504 150 q 572 -19 572 56 q 504 -211 572 -135 q 316 -282 420 -280 l 316 -281 q 307 -282 312 -282 l 305 -282 q 195 -271 260 -282 q 129 -243 129 -260 l 129 -111 l 163 -111 q 218 -201 167 -166 q 316 -235 264 -231 z "},"¨":{"ha":694,"x_min":142,"x_max":536,"o":"m 151 874 l 199 923 q 216 931 208 931 q 235 922 224 931 l 281 872 q 288 855 288 863 q 280 837 288 846 l 233 786 q 216 774 222 774 q 199 783 207 774 l 148 841 q 142 857 142 849 q 151 874 142 865 m 399 874 l 447 923 q 464 931 456 931 q 482 922 471 931 l 529 872 q 536 855 536 863 q 528 838 536 846 l 481 786 q 464 774 469 774 q 447 783 454 774 l 395 842 q 389 857 389 849 q 399 874 389 865 z "},"©":{"ha":1135,"x_min":68,"x_max":1067,"o":"m 570 987 q 760 949 668 987 q 922 840 851 911 q 1029 679 991 772 q 1067 487 1067 586 q 1029 296 1067 387 q 919 133 991 204 q 757 25 848 62 q 565 -12 666 -12 q 376 25 466 -12 q 215 134 287 63 q 105 295 143 205 q 68 487 68 386 q 105 679 68 587 q 214 840 143 770 q 375 949 283 911 q 570 987 468 987 m 242 812 q 143 663 178 747 q 109 487 109 579 q 143 311 109 394 q 243 163 178 229 q 392 63 310 98 q 566 28 474 28 q 742 63 659 28 q 890 161 825 97 q 991 312 956 228 q 1027 487 1027 395 q 991 663 1027 578 q 893 812 956 748 q 744 912 828 877 q 569 947 660 947 q 391 912 476 947 q 242 812 307 877 m 587 151 q 408 197 490 151 q 281 323 325 243 q 238 488 238 402 q 282 653 238 573 q 410 778 327 733 q 582 823 492 823 q 633 819 608 823 q 684 805 658 814 q 690 804 688 804 q 708 825 703 804 l 736 825 l 785 690 l 755 690 q 667 774 720 754 q 567 792 618 792 l 557 792 q 444 744 498 787 q 361 624 389 701 q 339 499 339 563 q 340 465 339 482 q 388 313 348 383 q 489 210 427 243 q 602 182 538 183 q 733 220 686 182 q 781 305 781 258 l 817 305 l 817 237 q 751 179 817 206 q 587 151 686 151 z "},"ª":{"ha":439,"x_min":0,"x_max":0,"o":""},"«":{"ha":640,"x_min":118,"x_max":572,"o":"m 118 325 l 350 530 l 359 530 l 359 505 l 220 325 l 359 144 l 359 119 l 350 119 l 118 325 m 330 325 l 562 530 l 572 530 l 572 505 l 433 325 l 572 144 l 572 119 l 562 119 l 330 325 z "},"¬":{"ha":688,"x_min":59,"x_max":629,"o":"m 59 520 l 629 520 l 629 187 l 628 186 l 562 186 l 562 452 l 59 452 l 59 520 z "},"®":{"ha":1135,"x_min":68,"x_max":1067,"o":"m 509 745 l 509 492 l 511 486 q 549 431 527 448 q 587 416 569 416 l 591 416 q 633 443 612 419 q 665 509 654 466 q 673 578 673 543 q 673 597 673 587 q 654 681 670 642 q 615 733 637 720 q 572 745 593 745 l 509 745 m 667 391 l 723 312 q 825 216 791 216 l 848 216 l 848 182 l 613 182 l 613 216 l 644 216 q 664 231 664 216 q 617 309 664 251 l 566 378 q 509 406 538 378 l 509 298 q 534 216 509 216 l 570 216 l 570 182 l 355 182 l 355 216 l 385 216 q 410 298 410 216 l 410 663 q 385 745 410 745 l 355 745 l 355 793 l 597 793 q 682 764 640 792 q 744 687 722 736 q 766 584 766 637 q 745 482 766 531 q 667 391 723 433 m 570 987 q 760 949 668 987 q 922 840 851 911 q 1029 679 991 772 q 1067 487 1067 586 q 1029 296 1067 387 q 919 133 991 204 q 757 25 848 62 q 565 -12 666 -12 q 376 25 466 -12 q 215 134 287 63 q 105 295 143 205 q 68 487 68 386 q 105 679 68 587 q 214 840 143 770 q 375 949 283 911 q 570 987 468 987 m 242 812 q 143 663 178 747 q 109 487 109 579 q 143 311 109 394 q 243 163 178 229 q 392 63 310 98 q 566 28 474 28 q 742 63 659 28 q 890 161 825 97 q 991 312 956 228 q 1027 487 1027 395 q 991 663 1027 578 q 893 812 956 748 q 744 912 828 877 q 569 947 660 947 q 391 912 476 947 q 242 812 307 877 z "},"¯":{"ha":454,"x_min":0,"x_max":0,"o":""},"°":{"ha":457,"x_min":41,"x_max":418,"o":"m 230 930 q 130 889 172 930 q 88 789 88 848 q 130 689 88 730 q 230 648 171 648 q 330 689 289 648 q 370 789 370 730 q 329 889 370 848 q 230 930 288 930 m 230 978 q 363 923 308 978 q 418 789 418 867 q 362 656 418 712 q 229 601 307 601 q 95 656 149 601 q 41 789 41 711 q 96 923 41 868 q 230 978 151 978 z "},"±":{"ha":688,"x_min":0,"x_max":0,"o":""},"²":{"ha":688,"x_min":0,"x_max":0,"o":""},"³":{"ha":688,"x_min":0,"x_max":0,"o":""},"´":{"ha":694,"x_min":214,"x_max":527,"o":"m 412 932 q 449 964 435 956 q 477 972 463 972 q 513 959 499 972 q 527 924 527 945 q 516 896 527 909 q 485 869 506 882 l 261 731 l 214 731 l 412 932 z "},"µ":{"ha":800,"x_min":0,"x_max":0,"o":""},"¶":{"ha":694,"x_min":63,"x_max":630,"o":"m 630 973 l 630 926 l 544 926 l 544 0 l 488 0 l 488 926 l 376 926 l 376 0 l 319 0 l 319 500 q 132 570 201 506 q 63 736 63 634 q 136 908 63 843 q 330 973 209 973 l 630 973 z "},"·":{"ha":345,"x_min":87,"x_max":257,"o":"m 98 502 l 154 559 q 174 568 164 568 q 195 557 182 568 l 249 499 q 257 479 257 488 q 248 458 257 469 l 193 399 q 174 385 180 385 q 154 395 163 385 l 94 463 q 87 481 87 472 q 98 502 87 491 z "},"¸":{"ha":694,"x_min":244,"x_max":521,"o":"m 244 -197 q 347 -232 302 -232 q 411 -217 392 -232 q 431 -172 431 -203 q 397 -129 431 -142 q 328 -118 370 -118 q 305 -119 317 -118 l 338 0 l 380 0 l 355 -71 q 397 -67 377 -68 q 488 -95 456 -67 q 521 -172 521 -122 q 481 -253 521 -223 q 372 -283 441 -283 q 244 -262 298 -283 l 244 -197 z "},"¹":{"ha":688,"x_min":0,"x_max":0,"o":""},"º":{"ha":487,"x_min":0,"x_max":0,"o":""},"»":{"ha":640,"x_min":68,"x_max":522,"o":"m 78 119 l 68 119 l 68 144 l 208 325 l 68 505 l 68 530 l 78 530 l 310 325 l 78 119 m 290 119 l 281 119 l 281 144 l 420 325 l 281 505 l 281 530 l 290 530 l 522 325 l 290 119 z "},"¼":{"ha":1158,"x_min":0,"x_max":0,"o":""},"½":{"ha":1332,"x_min":0,"x_max":0,"o":""},"¾":{"ha":1158,"x_min":0,"x_max":0,"o":""},"¿":{"ha":507,"x_min":0,"x_max":0,"o":""},"À":{"ha":1044,"x_min":0,"x_max":0,"o":""},"Á":{"ha":1044,"x_min":0,"x_max":0,"o":""},"Â":{"ha":1044,"x_min":0,"x_max":0,"o":""},"Ã":{"ha":1044,"x_min":0,"x_max":0,"o":""},"Ä":{"ha":1044,"x_min":0,"x_max":0,"o":""},"Å":{"ha":1044,"x_min":0,"x_max":0,"o":""},"Æ":{"ha":1436,"x_min":0,"x_max":0,"o":""},"Ç":{"ha":949,"x_min":0,"x_max":0,"o":""},"È":{"ha":781,"x_min":0,"x_max":0,"o":""},"É":{"ha":781,"x_min":0,"x_max":0,"o":""},"Ê":{"ha":781,"x_min":0,"x_max":0,"o":""},"Ë":{"ha":781,"x_min":0,"x_max":0,"o":""},"Ì":{"ha":446,"x_min":0,"x_max":0,"o":""},"Í":{"ha":446,"x_min":0,"x_max":0,"o":""},"Î":{"ha":446,"x_min":0,"x_max":0,"o":""},"Ï":{"ha":446,"x_min":0,"x_max":0,"o":""},"Ð":{"ha":1029,"x_min":0,"x_max":0,"o":""},"Ñ":{"ha":1054,"x_min":0,"x_max":0,"o":""},"Ò":{"ha":1095,"x_min":0,"x_max":0,"o":""},"Ó":{"ha":1095,"x_min":0,"x_max":0,"o":""},"Ô":{"ha":1095,"x_min":0,"x_max":0,"o":""},"Õ":{"ha":1095,"x_min":0,"x_max":0,"o":""},"Ö":{"ha":1095,"x_min":0,"x_max":0,"o":""},"×":{"ha":688,"x_min":109,"x_max":578,"o":"m 344 419 l 176 252 l 109 319 l 277 486 l 109 654 l 176 721 l 344 553 l 512 721 l 578 654 l 411 486 l 578 319 l 511 252 l 344 419 z "},"Ø":{"ha":1095,"x_min":0,"x_max":0,"o":""},"Ù":{"ha":1018,"x_min":0,"x_max":0,"o":""},"Ú":{"ha":1018,"x_min":0,"x_max":0,"o":""},"Û":{"ha":1018,"x_min":0,"x_max":0,"o":""},"Ü":{"ha":1018,"x_min":0,"x_max":0,"o":""},"Ý":{"ha":836,"x_min":0,"x_max":0,"o":""},"Þ":{"ha":760,"x_min":0,"x_max":0,"o":""},"ß":{"ha":848,"x_min":0,"x_max":0,"o":""},"à":{"ha":625,"x_min":0,"x_max":0,"o":""},"á":{"ha":625,"x_min":0,"x_max":0,"o":""},"â":{"ha":625,"x_min":0,"x_max":0,"o":""},"ã":{"ha":625,"x_min":0,"x_max":0,"o":""},"ä":{"ha":625,"x_min":0,"x_max":0,"o":""},"å":{"ha":625,"x_min":0,"x_max":0,"o":""},"æ":{"ha":986,"x_min":0,"x_max":0,"o":""},"ç":{"ha":614,"x_min":0,"x_max":0,"o":""},"è":{"ha":616,"x_min":0,"x_max":0,"o":""},"é":{"ha":616,"x_min":0,"x_max":0,"o":""},"ê":{"ha":616,"x_min":0,"x_max":0,"o":""},"ë":{"ha":616,"x_min":0,"x_max":0,"o":""},"ì":{"ha":349,"x_min":0,"x_max":0,"o":""},"í":{"ha":349,"x_min":0,"x_max":0,"o":""},"î":{"ha":349,"x_min":0,"x_max":0,"o":""},"ï":{"ha":349,"x_min":0,"x_max":0,"o":""},"ð":{"ha":772,"x_min":0,"x_max":0,"o":""},"ñ":{"ha":751,"x_min":0,"x_max":0,"o":""},"ò":{"ha":685,"x_min":0,"x_max":0,"o":""},"ó":{"ha":685,"x_min":0,"x_max":0,"o":""},"ô":{"ha":685,"x_min":0,"x_max":0,"o":""},"õ":{"ha":685,"x_min":0,"x_max":0,"o":""},"ö":{"ha":685,"x_min":0,"x_max":0,"o":""},"÷":{"ha":688,"x_min":59,"x_max":629,"o":"m 59 439 l 59 534 l 628 534 l 629 533 l 629 439 l 59 439 m 270 277 l 326 334 q 345 343 336 343 q 366 332 354 343 l 420 274 q 429 254 429 263 q 419 233 429 244 l 365 174 q 345 160 351 160 q 326 170 334 160 l 266 238 q 259 256 259 247 q 270 277 259 266 m 270 747 l 326 804 q 345 813 336 813 q 366 802 354 813 l 420 744 q 429 724 429 733 q 419 703 429 714 l 365 644 q 345 630 351 630 q 326 640 334 630 l 266 708 q 259 726 259 717 q 270 747 259 736 z "},"ø":{"ha":685,"x_min":0,"x_max":0,"o":""},"ù":{"ha":718,"x_min":0,"x_max":0,"o":""},"ú":{"ha":718,"x_min":0,"x_max":0,"o":""},"û":{"ha":718,"x_min":0,"x_max":0,"o":""},"ü":{"ha":718,"x_min":0,"x_max":0,"o":""},"ý":{"ha":589,"x_min":0,"x_max":0,"o":""},"þ":{"ha":685,"x_min":0,"x_max":0,"o":""},"ÿ":{"ha":589,"x_min":0,"x_max":0,"o":""},"ı":{"ha":349,"x_min":13,"x_max":321,"o":"m 222 151 q 290 34 222 34 l 321 34 l 321 0 l 22 0 l 22 34 l 53 34 q 121 151 121 34 l 121 444 q 45 496 121 496 l 13 496 l 13 526 q 190 650 163 573 l 222 650 l 222 151 z "},"ˆ":{"ha":694,"x_min":150,"x_max":545,"o":"m 150 732 l 307 972 l 387 972 l 545 732 l 505 732 l 347 878 l 189 732 l 150 732 z "},"ˇ":{"ha":694,"x_min":150,"x_max":545,"o":"m 150 972 l 189 972 l 347 827 l 505 972 l 545 972 l 387 731 l 307 731 l 150 972 z "},"ˉ":{"ha":694,"x_min":172,"x_max":522,"o":"m 172 810 l 172 895 l 522 895 l 522 810 l 172 810 z "},"˘":{"ha":694,"x_min":149,"x_max":545,"o":"m 149 915 l 183 915 q 234 842 195 865 q 347 819 273 819 q 460 842 421 819 q 510 915 498 865 l 545 915 q 481 778 531 825 q 347 732 431 732 q 214 779 264 732 q 149 915 163 825 z "},"˙":{"ha":694,"x_min":277,"x_max":422,"o":"m 286 874 l 333 923 q 342 929 337 927 q 351 931 347 931 q 360 929 355 931 q 368 923 364 927 l 416 871 q 421 865 420 869 q 422 855 422 861 q 420 845 422 849 q 415 837 419 841 l 367 785 q 356 776 359 778 q 351 774 353 774 q 340 776 345 774 q 333 782 336 778 l 282 841 q 278 847 279 844 q 277 857 277 851 q 279 865 277 861 q 286 874 281 869 z "},"˚":{"ha":694,"x_min":227,"x_max":468,"o":"m 279 852 q 298 804 279 824 q 347 785 318 785 q 395 804 375 785 q 414 852 414 824 q 394 900 414 880 q 347 920 374 920 q 299 900 319 920 q 279 852 279 880 m 227 852 q 262 938 227 903 q 347 972 296 972 q 433 938 398 972 q 468 852 468 903 q 433 767 468 802 q 347 732 398 732 q 262 767 296 732 q 227 852 227 802 z "},"˛":{"ha":694,"x_min":250,"x_max":500,"o":"m 434 0 q 359 -81 386 -42 q 332 -157 332 -120 q 351 -208 332 -189 q 400 -227 369 -227 q 447 -217 427 -227 q 481 -184 467 -206 l 500 -195 q 438 -260 475 -237 q 357 -283 401 -283 q 280 -259 310 -283 q 250 -198 250 -235 q 291 -92 250 -146 q 401 0 332 -37 l 434 0 z "},"˜":{"ha":694,"x_min":159,"x_max":548,"o":"m 548 937 q 502 833 534 867 q 416 798 469 798 l 413 798 q 336 814 379 798 q 259 830 292 830 q 218 816 233 830 q 195 768 203 802 l 159 768 q 205 875 172 840 q 292 911 238 911 q 369 895 323 910 q 445 879 412 879 l 448 879 q 487 892 472 879 q 511 937 502 906 l 548 937 z "},"˝":{"ha":694,"x_min":147,"x_max":547,"o":"m 147 732 l 245 917 q 276 960 261 947 q 307 972 290 972 q 340 959 326 972 q 353 927 353 945 q 346 903 353 916 q 326 876 339 890 l 186 732 l 147 732 m 340 732 l 438 917 q 469 960 454 947 q 500 972 484 972 q 533 959 519 972 q 547 927 547 945 q 539 903 547 916 q 519 876 532 890 l 380 732 l 340 732 z "},"–":{"ha":751,"x_min":38,"x_max":713,"o":"m 38 284 l 38 366 l 713 366 l 713 284 l 38 284 z "},"—":{"ha":1389,"x_min":0,"x_max":1389,"o":"m 0 284 l 0 366 l 1389 366 l 1389 284 l 0 284 z "},"‘":{"ha":378,"x_min":126,"x_max":297,"o":"m 216 689 q 156 733 186 689 q 126 836 126 778 q 174 990 126 910 q 269 1069 222 1069 l 269 1040 q 210 911 219 1011 q 297 802 210 831 l 297 774 l 216 689 z "},"’":{"ha":378,"x_min":81,"x_max":252,"o":"m 161 1069 q 221 1025 191 1069 q 252 922 252 981 q 203 769 252 848 q 109 689 155 689 l 109 718 q 168 847 159 747 q 81 956 168 928 l 81 985 l 161 1069 z "},"‚":{"ha":378,"x_min":81,"x_max":252,"o":"m 161 191 q 221 146 191 191 q 252 43 252 102 q 203 -110 252 -31 q 109 -190 155 -190 l 109 -161 q 168 -32 159 -132 q 81 77 168 49 l 81 106 l 161 191 z "},"“":{"ha":617,"x_min":126,"x_max":536,"o":"m 216 689 q 156 733 186 689 q 126 836 126 778 q 174 990 126 910 q 269 1069 222 1069 l 269 1040 q 210 911 219 1011 q 297 802 210 831 l 297 774 l 216 689 m 456 689 q 396 733 426 689 q 366 836 366 778 q 414 990 366 910 q 508 1069 462 1069 l 508 1040 q 449 911 458 1011 q 536 802 449 831 l 536 774 l 456 689 z "},"”":{"ha":617,"x_min":81,"x_max":491,"o":"m 161 1069 q 221 1025 191 1069 q 252 922 252 981 q 203 769 252 848 q 109 689 155 689 l 109 718 q 168 847 159 747 q 81 956 168 928 l 81 985 l 161 1069 m 401 1069 q 461 1025 431 1069 q 491 922 491 981 q 443 769 491 848 q 349 689 395 689 l 349 718 q 408 847 398 747 q 320 956 408 928 l 320 985 l 401 1069 z "},"„":{"ha":617,"x_min":81,"x_max":491,"o":"m 161 191 q 221 146 191 191 q 252 43 252 102 q 203 -110 252 -31 q 109 -190 155 -190 l 109 -161 q 168 -32 159 -132 q 81 77 168 49 l 81 106 l 161 191 m 401 191 q 461 146 431 191 q 491 43 491 102 q 443 -110 491 -31 q 349 -190 395 -190 l 349 -161 q 408 -32 398 -132 q 320 77 408 49 l 320 106 l 401 191 z "},"†":{"ha":688,"x_min":48,"x_max":640,"o":"m 330 693 q 293 814 324 759 q 254 901 254 882 q 279 955 254 935 q 344 975 303 975 q 408 956 382 975 q 433 907 433 937 q 396 814 433 886 q 359 693 365 757 q 479 730 424 699 q 566 768 547 768 q 620 744 600 768 q 640 679 640 720 q 622 615 640 640 q 572 589 603 589 q 480 627 551 589 q 359 665 422 658 q 433 477 364 546 q 357 -183 361 165 l 332 -183 q 254 477 328 165 q 330 665 323 546 q 209 628 264 659 q 121 589 140 589 q 68 614 88 589 q 48 679 48 638 q 67 743 48 718 q 115 768 85 768 q 208 730 137 768 q 330 693 266 699 z "},"‡":{"ha":688,"x_min":47,"x_max":640,"o":"m 358 126 q 479 165 422 134 q 572 202 550 202 q 621 177 602 202 q 640 113 640 151 q 619 47 640 72 q 566 23 599 23 q 478 62 547 23 q 358 98 423 93 q 395 -23 364 35 q 433 -116 433 -94 q 407 -164 433 -146 q 343 -183 382 -183 q 278 -163 302 -183 q 254 -110 254 -143 q 292 -22 254 -91 q 329 98 323 33 q 208 61 265 92 q 115 23 136 23 q 66 48 85 23 q 47 113 47 74 q 67 178 47 153 q 121 202 87 202 q 208 163 140 202 q 329 126 264 133 q 254 396 323 279 q 329 665 323 512 q 208 628 264 659 q 121 589 140 589 q 67 614 87 589 q 47 679 47 638 q 66 743 47 718 q 115 768 85 768 q 208 730 136 768 q 329 693 265 699 q 292 814 323 759 q 254 901 254 882 q 278 955 254 935 q 343 975 302 975 q 407 956 382 975 q 433 907 433 937 q 395 814 433 886 q 358 693 364 757 q 478 730 423 699 q 566 768 547 768 q 619 744 599 768 q 640 679 640 720 q 621 615 640 640 q 572 589 602 589 q 479 627 550 589 q 358 665 422 658 q 433 396 363 512 q 358 126 363 279 z "},"•":{"ha":694,"x_min":146,"x_max":548,"o":"m 146 487 q 205 629 146 570 q 348 687 264 687 q 489 628 431 687 q 548 487 548 570 q 489 345 548 404 q 347 286 429 286 q 205 345 263 286 q 146 487 146 404 z "},"…":{"ha":1389,"x_min":87,"x_max":1183,"o":"m 98 113 l 154 170 q 174 180 164 180 q 195 169 182 180 l 249 111 q 257 91 257 100 q 248 70 257 81 l 193 10 q 174 -3 180 -3 q 154 6 163 -3 l 94 75 q 87 92 87 83 q 98 113 87 102 m 562 113 l 617 170 q 637 180 627 180 q 658 169 646 180 l 712 111 q 720 91 720 100 q 711 70 720 81 l 656 10 q 637 -3 643 -3 q 617 6 626 -3 l 557 75 q 551 92 551 83 q 562 113 551 102 m 1025 113 l 1080 170 q 1100 180 1090 180 q 1121 169 1109 180 l 1175 111 q 1183 91 1183 100 q 1174 70 1183 81 l 1120 10 q 1100 -3 1106 -3 q 1080 6 1089 -3 l 1021 75 q 1014 92 1014 83 q 1025 113 1014 102 z "},"‹":{"ha":428,"x_min":118,"x_max":359,"o":"m 118 325 l 350 530 l 359 530 l 359 505 l 220 325 l 359 144 l 359 119 l 350 119 l 118 325 z "},"›":{"ha":428,"x_min":68,"x_max":310,"o":"m 78 119 l 68 119 l 68 144 l 208 325 l 68 505 l 68 530 l 78 530 l 310 325 l 78 119 z "},"⁄":{"ha":232,"x_min":-232,"x_max":463,"o":"m -232 -20 l 406 971 l 463 971 l -174 -20 l -232 -20 z "},"₣":{"ha":688,"x_min":33,"x_max":723,"o":"m 168 242 l 36 242 l 36 283 l 168 283 l 168 779 q 98 939 168 939 l 33 939 l 33 972 l 653 972 l 723 816 l 690 816 q 561 939 650 939 l 347 939 q 277 779 277 939 l 277 541 l 522 541 q 590 583 590 541 l 590 623 l 624 623 l 624 391 l 590 391 l 590 431 q 522 473 590 473 l 277 473 l 277 283 l 409 283 l 409 242 l 277 242 l 277 193 q 347 34 277 34 l 412 34 l 412 0 l 33 0 l 33 34 l 98 34 q 168 193 168 34 l 168 242 z "},"₤":{"ha":688,"x_min":52,"x_max":635,"o":"m 507 913 q 399 935 458 935 l 397 935 q 269 866 330 935 q 212 703 212 803 q 212 682 212 692 q 235 538 212 610 l 492 538 l 492 497 l 248 497 q 266 456 256 477 l 505 456 l 505 416 l 287 416 q 311 322 311 373 q 201 68 311 213 l 473 68 q 602 157 562 68 l 635 157 l 565 0 l 77 0 l 78 34 q 205 317 205 195 q 182 414 205 370 l 180 416 l 64 416 l 64 456 l 161 456 q 143 497 151 477 l 52 497 l 52 538 l 128 538 q 104 669 104 610 q 188 904 104 822 q 398 986 271 986 q 524 977 449 986 q 599 954 599 967 l 599 844 l 559 844 q 507 913 556 886 z "},"₧":{"ha":1375,"x_min":33,"x_max":1334,"o":"m 277 939 l 277 490 q 282 478 279 484 q 355 374 310 409 q 434 345 394 345 q 447 345 441 345 q 533 396 493 351 q 592 516 573 441 q 607 637 607 575 q 606 669 607 654 q 573 818 602 748 q 499 916 544 887 q 423 939 461 939 q 409 939 416 939 l 277 939 m 1015 616 l 893 616 l 893 151 q 916 71 893 96 q 971 45 935 50 l 923 176 l 956 176 q 1034 58 994 88 q 1120 28 1072 28 l 1124 28 q 1227 64 1187 28 q 1267 156 1267 100 q 1091 309 1267 225 q 994 385 1023 345 q 964 484 964 426 q 1014 615 964 566 l 1015 616 m 705 617 q 672 486 700 549 q 576 365 638 408 q 448 322 515 322 q 318 366 380 322 q 277 400 296 380 l 277 193 q 347 34 277 34 l 412 34 l 412 0 l 33 0 l 33 34 l 98 34 q 168 193 168 34 l 168 779 q 98 939 168 939 l 33 939 l 33 972 l 452 972 q 574 930 514 971 q 671 810 636 888 q 706 650 705 734 l 713 650 q 859 890 859 650 l 893 890 l 893 650 l 1069 650 q 1143 663 1097 663 l 1145 663 q 1235 654 1181 663 q 1289 631 1289 645 l 1289 524 l 1261 524 q 1216 597 1258 568 q 1126 625 1175 625 q 1056 601 1082 625 q 1030 535 1030 576 q 1190 386 1030 462 q 1303 306 1272 349 q 1334 202 1334 264 q 1278 45 1334 107 q 1123 -13 1208 -12 q 1052 -5 1084 -13 q 1014 -1 1033 -1 q 989 -3 1002 -1 q 949 -7 970 -7 q 832 32 865 -7 q 793 151 798 71 l 792 151 l 792 617 l 705 617 z "},"€":{"ha":688,"x_min":-30,"x_max":724,"o":"m 95 252 q 43 443 53 344 l -30 443 l -18 484 l 41 484 l 41 503 q 41 524 41 514 l -7 524 l 5 565 l 44 565 q 96 755 54 663 q 249 941 151 876 q 451 1006 347 1006 q 510 1001 480 1006 q 566 981 537 994 q 576 977 571 977 q 600 1008 590 977 l 627 1008 l 684 817 l 657 817 q 564 937 624 907 q 509 959 534 952 l 509 961 q 440 972 475 972 q 417 970 429 972 q 264 893 336 962 q 157 708 192 825 q 131 565 136 637 l 610 565 l 598 524 l 129 524 q 130 484 129 504 l 587 484 l 576 443 l 134 443 q 190 241 145 336 q 321 81 240 134 q 467 34 390 35 q 641 96 593 36 q 691 221 691 157 l 724 221 l 724 124 q 648 38 724 77 q 467 0 577 1 q 247 66 345 0 q 95 252 149 133 z "},"№":{"ha":1540,"x_min":0,"x_max":0,"o":""},"™":{"ha":1015,"x_min":0,"x_max":0,"o":""},"∂":{"ha":688,"x_min":52,"x_max":635,"o":"m 157 364 q 161 311 157 336 q 202 155 170 228 q 283 43 235 81 q 370 7 326 7 q 378 7 374 7 q 465 55 426 11 q 519 177 504 100 q 530 278 530 227 q 527 336 530 307 q 485 493 517 418 q 404 605 452 567 q 317 639 359 639 l 309 639 q 224 592 263 635 q 168 471 184 548 q 157 364 157 414 m 635 323 q 597 153 635 234 q 489 28 559 73 q 344 -17 420 -17 q 198 28 268 -17 q 91 153 129 73 q 52 323 52 234 q 92 494 52 412 q 201 619 131 575 q 344 663 271 663 q 488 619 418 663 q 524 591 507 607 q 366 847 467 751 q 144 952 264 943 l 144 989 q 494 796 352 989 q 635 323 635 603 z "},"∆":{"ha":733,"x_min":4,"x_max":728,"o":"m 349 810 l 73 83 l 616 83 l 349 810 m 371 972 l 728 0 l 4 0 l 371 972 z "},"∏":{"ha":1027,"x_min":33,"x_max":995,"o":"m 347 939 q 277 779 277 939 l 277 -90 q 347 -249 277 -249 l 412 -249 l 412 -283 l 33 -283 l 33 -249 l 98 -249 q 168 -90 168 -249 l 168 779 q 98 939 168 939 l 33 939 l 33 972 l 995 972 l 995 939 l 929 939 q 860 779 860 939 l 860 -90 q 929 -249 860 -249 l 995 -249 l 995 -283 l 615 -283 l 615 -249 l 680 -249 q 750 -90 750 -249 l 750 779 q 680 939 750 939 l 347 939 z "},"∑":{"ha":818,"x_min":81,"x_max":776,"o":"m 718 372 l 184 -248 l 614 -248 q 743 -125 703 -248 l 776 -125 l 706 -282 l 81 -282 l 81 -248 q 153 -212 123 -248 l 603 317 l 153 900 q 81 939 123 939 l 81 972 l 706 972 l 776 815 l 743 815 q 614 939 703 939 l 286 939 l 718 372 z "},"−":{"ha":688,"x_min":59,"x_max":629,"o":"m 59 439 l 59 534 l 628 534 l 629 533 l 629 439 l 59 439 z "},"√":{"ha":688,"x_min":12,"x_max":715,"o":"m 123 0 l 12 243 l 62 267 l 119 142 l 613 1139 l 715 1139 l 715 1098 l 666 1098 l 123 0 z "},"∞":{"ha":688,"x_min":45,"x_max":645,"o":"m 298 512 q 248 602 288 582 q 191 617 216 617 q 175 616 182 617 q 112 586 142 609 q 68 528 83 562 q 54 467 54 497 l 54 462 q 73 401 56 429 q 121 362 90 374 q 163 355 141 355 q 185 357 174 355 q 247 386 217 363 q 298 512 276 409 m 316 466 q 380 362 324 401 q 463 330 427 330 q 477 331 471 330 q 557 366 519 339 q 614 435 595 393 q 632 508 632 471 l 632 515 q 608 589 631 556 q 546 635 585 622 q 494 644 521 644 q 465 642 479 644 q 378 600 419 635 q 316 466 338 564 m 305 561 q 319 608 311 585 q 384 701 342 667 q 471 734 425 734 q 557 701 516 734 q 622 610 599 669 q 645 486 645 551 q 622 363 645 422 q 557 271 599 304 q 471 239 516 239 q 384 272 425 239 q 319 364 342 305 q 305 412 311 388 q 297 384 302 397 q 247 307 279 334 q 180 280 215 280 q 112 308 144 280 q 62 385 79 336 q 45 486 45 434 q 62 587 45 538 q 112 665 79 637 q 180 692 144 692 q 247 665 215 692 q 297 589 279 638 q 305 561 302 575 z "},"∫":{"ha":451,"x_min":-49,"x_max":492,"o":"m -8 -191 q -49 -171 -49 -191 l -49 -63 l -24 -63 q -1 -107 -24 -92 q 42 -121 22 -121 l 43 -121 q 121 -12 98 -121 q 148 203 142 98 l 195 701 l 201 743 q 292 1034 219 904 q 451 1164 366 1164 q 492 1144 492 1164 l 492 1036 l 467 1036 q 444 1080 467 1065 q 401 1095 420 1095 q 322 989 353 1095 q 289 743 292 884 l 239 222 q 151 -62 226 66 q -8 -191 76 -191 z "},"≈":{"ha":688,"x_min":64,"x_max":626,"o":"m 626 714 l 626 608 q 543 542 583 559 q 465 525 503 525 q 344 558 424 525 q 224 591 264 591 q 152 572 190 591 q 64 496 113 553 l 64 602 q 147 669 107 651 q 224 686 187 686 q 348 653 268 686 q 465 619 427 619 q 538 638 500 619 q 626 714 576 657 m 626 478 l 626 372 q 543 306 583 323 q 465 289 503 289 q 344 322 424 289 q 224 355 264 355 q 152 336 190 355 q 64 260 113 317 l 64 366 q 147 433 107 415 q 224 450 187 450 q 348 417 268 450 q 465 383 427 383 q 538 402 500 383 q 626 478 576 421 z "},"≤":{"ha":688,"x_min":59,"x_max":629,"o":"m 629 728 l 205 485 l 629 244 l 629 131 l 59 457 l 59 513 l 629 842 l 629 728 m 59 1 l 59 96 l 628 96 l 629 95 l 629 1 l 59 1 z "},"≥":{"ha":688,"x_min":59,"x_max":629,"o":"m 59 842 l 629 513 l 629 457 l 59 131 l 59 244 l 483 485 l 59 728 l 59 842 m 59 1 l 59 96 l 628 96 l 629 96 l 629 1 l 59 1 z "},"":{"ha":728,"x_min":0,"x_max":0,"o":""},"":{"ha":733,"x_min":0,"x_max":0,"o":""}}}
